#!OML:ASF I:\Actors\actors\Patient Classification 2\Patient 1\Session 1\actor1.ASF
:FULLY-SPECIFIED
:DEGREES
98
root -0.729669 18.5285 5.91172 -1.50528 -4.43874 -6.11123
lowerback 10.6218 0.907814 3.9613
upperback -0.359821 1.76459 0.920939
thorax -6.25691 0.752745 -1.54188
lowerneck -10.3167 -0.752154 0.696946
upperneck 20.2026 -1.40167 1.05842
head 7.94192 -0.514286 0.0950498
rclavicle 9.79014e-015 -2.38542e-015
rhumerus -59.5999 5.03789 -86.0919
rradius 59.2597
rwrist 0.910219
rhand 6.94964 -39.3178
rfingers 7.12502
rthumb 32.2278 -66.4778
lclavicle 9.79014e-015 -2.38542e-015
lhumerus -47.2967 -12.1115 91.4445
lradius 50.834
lwrist 7.15241
lhand -0.812095 -17.5282
lfingers 7.12502
lthumb 24.8123 10.8821
rfemur 10.4077 1.39848 20.3135
rtibia -4.77083e-014
rfoot -14.4307 -9.36167
rtoes -12.1609
lfemur -3.33597 -0.421718 -7.43618
ltibia 27.5125
lfoot -23.7312 9.1273
ltoes -56.7388
99
root -0.741856 18.5089 5.88513 -2.01659 -3.96631 -6.05887
lowerback 11.4198 0.771375 3.77727
upperback 0.154808 1.58364 0.949889
thorax -6.1767 0.677198 -1.3916
lowerneck -10.8166 -0.79912 0.675519
upperneck 19.9727 -1.48557 1.15833
head 7.95749 -0.545527 0.121437
rclavicle -1.51573e-015 6.75868e-015
rhumerus -60.8128 8.04246 -86.8776
rradius 61.7873
rwrist -1.75462
rhand 7.78402 -39.3709
rfingers 7.12502
rthumb 33.0217 -66.3665
lclavicle -1.51573e-015 6.75868e-015
lhumerus -48.5492 -15.5645 92.1198
lradius 54.0937
lwrist 10.3504
lhand -0.224584 -16.0407
lfingers 7.12502
lthumb 25.3752 12.2908
rfemur 10.9585 0.919793 20.2981
rtibia 4.77083e-015
rfoot -14.3977 -9.42276
rtoes -12.3823
lfemur -3.27892 -0.187036 -7.29698
ltibia 27.9862
lfoot -23.5327 8.36719
ltoes -56.8487
100
root -0.749418 18.4917 5.85292 -2.30784 -3.80262 -5.99046
lowerback 11.9614 0.722008 3.51451
upperback 0.71133 1.49534 1.0304
thorax -5.90415 0.653064 -1.15017
lowerneck -11.3659 -0.805782 0.560725
upperneck 19.634 -1.48856 1.23519
head 7.94584 -0.548057 0.163679
rclavicle 2.3059e-014 -8.74653e-015
rhumerus -62.0057 11.3089 -87.5317
rradius 64.4424
rwrist -4.3611
rhand 8.53404 -39.3056
rfingers 7.12502
rthumb 33.7346 -66.1479
lclavicle 2.3059e-014 -8.74653e-015
lhumerus -49.7372 -18.6482 92.5154
lradius 57.5791
lwrist 13.6511
lhand 0.28681 -15.3985
lfingers 7.12502
lthumb 25.8651 12.8625
rfemur 11.1848 0.75374 20.2542
rtibia -4.92986e-014
rfoot -14.2406 -9.59233
rtoes -12.7752
lfemur -3.44217 0.187274 -7.22528
ltibia 28.5373
lfoot -23.3412 7.88524
ltoes -57.0291
101
root -0.752496 18.4742 5.8161 -2.47733 -3.73457 -6.00761
lowerback 12.2147 0.678392 3.26075
upperback 1.40354 1.40254 1.20368
thorax -5.32871 0.631438 -0.808745
lowerneck -11.9623 -0.786101 0.517969
upperneck 19.1338 -1.4301 1.1378
head 7.88665 -0.533927 0.142611
rclavicle -1.08586e-014 -3.57812e-015
rhumerus -63.1016 14.7673 -87.9686
rradius 67.4106
rwrist -7.06509
rhand 9.02105 -39.4572
rfingers 7.12502
rthumb 34.1973 -66.197
lclavicle -1.08586e-014 -3.57812e-015
lhumerus -50.706 -21.3521 92.6111
lradius 61.2065
lwrist 16.967
lhand 0.465766 -15.6449
lfingers 7.12502
lthumb 26.0364 12.591
rfemur 11.2405 0.682097 20.2853
rtibia -2.06736e-014
rfoot -14.093 -9.7697
rtoes -12.9729
lfemur -3.77036 0.593321 -7.08885
ltibia 29.1612
lfoot -23.1848 7.4923
ltoes -57.1792
102
root -0.752691 18.4572 5.77971 -2.59864 -3.6215 -6.06167
lowerback 12.9267 0.635392 3.36856
upperback 1.72856 1.38179 1.21408
thorax -5.37915 0.62064 -0.864438
lowerneck -12.2537 -0.831452 0.608008
upperneck 18.8199 -1.50114 1.10039
head 7.83442 -0.56592 0.10718
rclavicle -2.50966e-015 -9.54166e-015
rhumerus -64.882 17.7816 -88.4362
rradius 70.4394
rwrist -9.4336
rhand 9.33624 -39.3167
rfingers 7.12502
rthumb 34.4965 -65.9888
lclavicle -2.50966e-015 -9.54166e-015
lhumerus -52.1855 -24.0507 92.5075
lradius 64.8488
lwrist 20.0352
lhand 0.877426 -15.4059
lfingers 7.12502
lthumb 26.4305 12.7713
rfemur 11.2474 0.566218 20.3343
rtibia -1.59028e-014
rfoot -13.9986 -9.8968
rtoes -13.0755
lfemur -4.19727 1.00084 -6.9232
ltibia 29.8546
lfoot -23.0765 7.05778
ltoes -57.3958
103
root -0.751879 18.4402 5.74487 -2.67255 -3.5316 -6.1184
lowerback 13.9054 0.610605 3.65259
upperback 1.80689 1.42721 1.12076
thorax -5.82651 0.628255 -1.147
lowerneck -12.4062 -0.900745 0.768233
upperneck 18.6981 -1.63544 1.12983
head 7.82112 -0.615789 0.0759357
rclavicle 4.47266e-016 -1.51076e-014
rhumerus -67.1094 20.3894 -88.9215
rradius 73.4348
rwrist -11.5758
rhand 9.67938 -39.1201
rfingers 7.12502
rthumb 34.8222 -65.7175
lclavicle 4.47266e-016 -1.51076e-014
lhumerus -53.9629 -26.6937 92.2525
lradius 68.4011
lwrist 22.8795
lhand 1.57921 -14.7818
lfingers 7.12502
lthumb 27.1021 13.2927
rfemur 11.2096 0.473767 20.3842
rtibia -1.27222e-014
rfoot -13.8735 -10.0242
rtoes -13.3254
lfemur -4.68258 1.44096 -6.76119
ltibia 30.5896
lfoot -22.9869 6.64047
ltoes -57.6282
104
root -0.750945 18.4217 5.71061 -2.6798 -3.45691 -6.13374
lowerback 14.4545 0.591723 3.72509
upperback 2.10348 1.43028 1.13552
thorax -5.81287 0.631172 -1.18002
lowerneck -12.7565 -0.953948 0.811959
upperneck 18.5516 -1.7267 1.16362
head 7.83575 -0.652324 0.0688509
rclavicle 7.60351e-015 4.77083e-015
rhumerus -69.0159 23.0366 -89.0686
rradius 76.3764
rwrist -13.7828
rhand 9.97783 -38.9271
rfingers 7.12502
rthumb 35.1053 -65.4585
lclavicle 7.60351e-015 4.77083e-015
lhumerus -55.3038 -29.0149 91.7604
lradius 71.8506
lwrist 25.7082
lhand 2.29209 -14.2721
lfingers 7.12502
lthumb 27.7839 13.6944
rfemur 11.0964 0.398626 20.3941
rtibia 1.59028e-015
rfoot -13.702 -10.1534
rtoes -13.4194
lfemur -5.23527 1.8372 -6.65641
ltibia 31.3388
lfoot -22.9321 6.24991
ltoes -57.6851
105
root -0.751283 18.4029 5.67664 -2.58179 -3.37475 -6.20093
lowerback 14.6578 0.565687 3.71409
upperback 2.51727 1.39726 1.26259
thorax -5.49022 0.626209 -1.03337
lowerneck -13.1691 -0.99952 0.72878
upperneck 18.3707 -1.78978 1.24302
head 7.85149 -0.679873 0.10038
rclavicle 3.8266e-015 2.70347e-014
rhumerus -70.7584 25.8118 -88.9815
rradius 79.2336
rwrist -16.0312
rhand 10.1695 -38.7667
rfingers 7.12502
rthumb 35.2871 -65.2552
lclavicle 3.8266e-015 2.70347e-014
lhumerus -56.3471 -31.096 91.0761
lradius 75.2286
lwrist 28.5212
lhand 2.96048 -13.6328
lfingers 7.12502
lthumb 28.4228 14.2288
rfemur 8.07596 0.30919 20.491
rtibia 5.64019
rfoot -15.8688 -8.6272
rtoes -13.423
lfemur -5.89187 2.17794 -6.49633
ltibia 32.0754
lfoot -22.9612 5.83309
ltoes -57.6377
106
root -0.751704 18.3854 5.64303 -2.43346 -3.3161 -6.34122
lowerback 15.0602 0.549152 3.94661
upperback 2.74008 1.42754 1.32381
thorax -5.46821 0.639752 -1.11049
lowerneck -13.4713 -1.06576 0.587642
upperneck 18.2824 -1.89473 1.45313
head 7.88032 -0.718028 0.180491
rclavicle 9.54166e-015 7.15625e-015
rhumerus -72.7757 28.3198 -88.9732
rradius 81.9524
rwrist -18.0968
rhand 10.5546 -38.7349
rfingers 7.12502
rthumb 35.6522 -65.1361
lclavicle 9.54166e-015 7.15625e-015
lhumerus -57.618 -33.2632 90.3455
lradius 78.4937
lwrist 31.2172
lhand 3.60442 -13.0379
lfingers 7.12502
lthumb 29.038 14.7193
rfemur 6.29594 0.244064 20.6465
rtibia 8.65976
rfoot -16.9566 -7.88377
rtoes -13.7523
lfemur -6.57176 2.48031 -6.26514
ltibia 32.7733
lfoot -23.0064 5.4333
ltoes -57.5571
107
root -0.750318 18.3685 5.61022 -2.27667 -3.32739 -6.43487
lowerback 15.5714 0.557813 4.26406
upperback 2.85652 1.51157 1.30621
thorax -5.61038 0.673251 -1.33252
lowerneck -13.6093 -1.1273 0.491918
upperneck 18.1763 -1.99912 1.65863
head 7.87379 -0.75417 0.252458
rclavicle -1.1778e-014 -2.44505e-014
rhumerus -74.9135 30.5495 -88.9801
rradius 84.5302
rwrist -19.9278
rhand 11.2125 -38.7032
rfingers 7.12502
rthumb 36.2754 -64.9516
lclavicle -1.1778e-014 -2.44505e-014
lhumerus -59.0636 -35.4682 89.5929
lradius 81.4576
lwrist 33.9351
lhand 4.05601 -13.1681
lfingers 7.12502
lthumb 29.4692 14.514
rfemur 4.88244 0.254562 20.7254
rtibia 10.8952
rfoot -17.7223 -7.3763
rtoes -14.1698
lfemur -7.21292 2.83597 -6.10044
ltibia 33.4296
lfoot -22.9994 5.13341
ltoes -57.5533
